<?xml version="1.0" standalone="no"?>
<!DOCTYPE svg PUBLIC "-//W3C//DTD SVG 20010904//EN"
 "http://www.w3.org/TR/2001/REC-SVG-20010904/DTD/svg10.dtd">
<svg version="1.0" xmlns="http://www.w3.org/2000/svg"
 width="700.000000pt" height="700.000000pt" viewBox="0 0 700.000000 700.000000"
 preserveAspectRatio="xMidYMid meet">
<metadata>
Created by potrace 1.11, written by Peter Selinger 2001-2013
</metadata>
<g transform="translate(0.000000,700.000000) scale(0.100000,-0.100000)"
fill="#000000" stroke="none">
<path d="M3379 6656 c-2 -2 -33 -6 -69 -10 -36 -3 -76 -8 -90 -11 -14 -3 -41
-8 -60 -11 -71 -11 -263 -67 -325 -94 -236 -103 -402 -208 -564 -355 -489
-444 -707 -1099 -580 -1745 38 -190 138 -455 224 -590 12 -19 156 -259 319
-532 163 -273 304 -510 313 -526 10 -16 44 -74 76 -128 32 -55 108 -183 170
-285 140 -233 150 -250 145 -253 -1 -2 -59 -13 -128 -25 -198 -36 -434 -102
-560 -158 -81 -35 -205 -98 -208 -105 -2 -5 -8 -8 -13 -8 -18 0 -162 -111
-212 -163 -110 -113 -158 -217 -163 -349 -3 -75 0 -99 22 -160 110 -307 558
-560 1169 -663 17 -3 39 -7 51 -9 12 -2 45 -7 75 -11 30 -3 65 -8 79 -10 124
-20 669 -29 825 -12 123 12 169 17 205 23 19 3 44 7 55 8 11 2 34 6 50 9 17 3
48 9 70 12 82 11 316 76 433 119 443 163 695 401 701 664 5 212 -133 400 -413
560 -218 125 -538 226 -880 276 -8 1 -18 5 -21 8 -6 5 43 91 100 178 13 19 87
139 165 265 78 127 168 271 199 321 31 49 61 99 68 110 7 10 31 50 55 87 24
37 48 76 53 85 9 17 36 60 110 177 411 650 477 791 551 1185 10 55 14 420 4
470 -4 25 -11 68 -14 97 -9 81 -61 272 -102 374 -200 500 -592 884 -1096 1073
-101 37 -258 79 -341 91 -27 4 -59 9 -70 12 -26 6 -372 14 -378 9z m381 -221
c69 -9 247 -54 325 -82 39 -14 115 -47 169 -75 622 -309 986 -960 920 -1648
-9 -95 -42 -252 -75 -355 -25 -77 -126 -297 -159 -345 -9 -14 -755 -1216
-1108 -1785 -85 -137 -169 -272 -187 -300 -18 -27 -59 -93 -91 -146 l-59 -96
-99 166 c-54 91 -176 294 -269 451 -94 157 -176 294 -182 305 -5 11 -18 31
-27 45 -8 14 -190 318 -403 675 -213 358 -402 675 -420 705 -77 128 -155 324
-190 475 -50 217 -52 492 -5 707 56 258 166 489 326 690 208 261 493 456 804
552 116 35 131 39 275 61 79 12 365 12 455 0z m-512 -4825 c94 -157 180 -291
191 -297 31 -19 85 -16 114 7 14 11 92 127 173 258 81 130 163 261 182 290
l35 53 51 -6 c102 -13 123 -17 246 -41 557 -111 939 -347 940 -582 0 -173
-210 -353 -564 -483 -64 -24 -226 -72 -281 -83 -5 -1 -23 -5 -40 -9 -16 -4
-41 -9 -55 -11 -14 -3 -48 -9 -77 -15 -29 -6 -81 -13 -115 -17 -35 -3 -65 -8
-68 -9 -5 -3 -45 -7 -220 -20 -69 -6 -433 -6 -480 -1 -19 3 -73 7 -120 11
-368 26 -759 136 -1020 286 -54 31 -133 92 -178 139 -200 205 -100 427 278
615 52 26 99 48 105 49 5 1 15 4 20 7 19 11 230 78 300 95 63 15 283 56 325
61 30 3 57 7 59 9 9 8 30 -25 199 -306z"/>
<path d="M3365 5451 c-102 -28 -153 -50 -219 -94 -128 -86 -224 -214 -273
-362 -22 -69 -26 -98 -26 -205 -1 -110 2 -134 26 -203 45 -130 104 -219 203
-308 185 -165 466 -212 703 -116 253 102 429 371 420 642 -9 298 -198 546
-484 637 -91 29 -261 33 -350 9z m359 -240 c174 -84 270 -245 262 -439 -4
-107 -31 -180 -94 -265 -169 -225 -502 -247 -702 -47 -183 184 -185 472 -4
657 102 104 209 145 362 139 83 -4 100 -8 176 -45z"/>
</g>
</svg>
